 http://en.wikipedia.org/wiki/57th_Filmfare_Awards
General
Complete name                            : 57th Idea FlimFare Awards (2012) - HQ Rip - Main Event - XviD -.avi
Format                                   : AVI
Format/Info                              : Audio Video Interleave
File size                                : 991 MiB
Duration                                 : 2h 23mn
Overall bit rate                         : 968 Kbps

Video
ID                                       : 0
Format                                   : MPEG-4 Visual
Format profile                           : Advanced Simple@L5
Format settings, BVOP                    : 2
Format settings, QPel                    : No
Format settings, GMC                     : No warppoints
Format settings, Matrix                  : Default (H.263)
Codec ID                                 : XVID
Codec ID/Hint                            : XviD
Duration                                 : 2h 23mn
Bit rate                                 : 850 Kbps
Width                                    : 640 pixels
Height                                   : 480 pixels
Display aspect ratio                     : 4:3
Frame rate                               : 25.000 fps
Color space                              : YUV
Chroma subsampling                       : 4:2:0
Bit depth                                : 8 bits
Scan type                                : Progressive
Compression mode                         : Lossy
Bits/(Pixel*Frame)                       : 0.111
Stream size                              : 870 MiB (88%)
Writing library                          : XviD 1.2.1 (UTC 2008-12-04)

Audio
ID                                       : 1
Format                                   : MPEG Audio
Format version                           : Version 1
Format profile                           : Layer 3
Mode                                     : Joint stereo
Mode extension                           : MS Stereo
Codec ID                                 : 55
Codec ID/Hint                            : MP3
Duration                                 : 2h 23mn
Bit rate mode                            : Constant
Bit rate                                 : 112 Kbps
Channel(s)                               : 2 channels
Sampling rate                            : 44.1 KHz
Compression mode                         : Lossy
Stream size                              : 115 MiB (12%)
Alignment                                : Aligned on interleaves
Interleave, duration                     : 160 ms (4.00 video frames)
Interleave, preload duration             : 208 ms
Title                                    : Team xDM
Writing library                          : LAME3.99r
Encoding settings                        : -m j -V 4 -q 2 -lowpass 15.6 -b 112
 
http://img706.imageshack.us/img706/1941/83474754.jpg 
http://img192.imageshack.us/img192/4608/34257978.jpg 
http://img850.imageshack.us/img850/1533/75608746.jpg 
http://img824.imageshack.us/img824/6408/42737056.jpg 
http://img207.imageshack.us/img207/7708/71862796.jpg